<svg width="400" height="132" viewBox="0 0 400 132" fill="none" xmlns="http://www.w3.org/2000/svg">
<rect x="40.0986" y="59.8481" width="104.136" height="29.9241" fill="#333333"/>
<g filter="url(#filter0_d_3920_274)">
<path d="M36.5078 76.6057H144.235V93.3632C144.235 99.9739 138.876 105.333 132.265 105.333H48.4775C41.8668 105.333 36.5078 99.9739 36.5078 93.3632V76.6057Z" fill="#F9B634"/>
<path d="M37.7048 77.8027H143.038V93.3632C143.038 99.3128 138.215 104.136 132.265 104.136H48.4775C42.5279 104.136 37.7048 99.3128 37.7048 93.3632V77.8027Z" stroke="#333333" stroke-width="2.39393"/>
</g>
<g filter="url(#filter1_d_3920_274)">
<path d="M156.945 106.2C155.074 109.44 151.512 111.62 146.468 112.681C141.424 113.743 135.002 113.661 127.611 112.46C112.838 110.06 94.3914 103.222 75.8012 92.4894C57.211 81.7564 42.0665 69.2001 32.6011 57.6057C27.8662 51.806 24.5838 46.2851 22.9813 41.3865C21.3787 36.4873 21.4847 32.3122 23.3554 29.0719C25.2262 25.8317 28.7889 23.6523 33.8331 22.5907C38.8767 21.5292 45.2991 21.6114 52.6893 22.812C67.4629 25.2122 85.9093 32.0495 104.499 42.7826C123.09 53.5156 138.234 66.0719 147.7 77.6662C152.434 83.466 155.717 88.9869 157.319 93.8855C158.922 98.7847 158.816 102.96 156.945 106.2Z" stroke="#333333" stroke-width="1.79545" shape-rendering="crispEdges"/>
</g>
<mask id="path-5-outside-1_3920_274" maskUnits="userSpaceOnUse" x="101.537" y="36.333" width="45" height="49" fill="black">
<rect fill="white" x="101.537" y="36.333" width="45" height="49"/>
<path d="M123.83 81.9178C119.502 81.9178 115.935 81.333 113.128 80.1634C110.321 78.9938 108.216 77.4538 106.812 75.5435C105.408 73.6331 104.668 71.6058 104.59 69.4615C104.59 69.1106 104.707 68.8182 104.941 68.5843C105.214 68.3114 105.525 68.1749 105.876 68.1749H116.988C117.611 68.1749 118.079 68.2724 118.391 68.4673C118.742 68.6233 119.112 68.8572 119.502 69.1691C119.892 69.442 120.282 69.6954 120.672 69.9293C121.101 70.1243 121.569 70.2802 122.075 70.3972C122.621 70.4752 123.206 70.5141 123.83 70.5141C125.155 70.5141 126.208 70.3777 126.988 70.1048C127.806 69.7929 128.216 69.3835 128.216 68.8767C128.216 68.4089 127.982 68.019 127.514 67.7071C127.085 67.3952 126.325 67.1223 125.233 66.8884C124.142 66.6155 122.621 66.362 120.672 66.1281C117.592 65.6993 114.921 64.978 112.66 63.9644C110.399 62.9507 108.644 61.5667 107.397 59.8122C106.188 58.0189 105.584 55.8356 105.584 53.2625C105.584 50.6113 106.325 48.2721 107.806 46.2448C109.327 44.2175 111.412 42.6385 114.064 41.5079C116.754 40.3773 119.873 39.812 123.42 39.812C126.344 39.812 128.937 40.2018 131.198 40.9816C133.46 41.7223 135.37 42.7165 136.929 43.9641C138.489 45.1727 139.678 46.4787 140.497 47.8823C141.315 49.2858 141.744 50.6308 141.783 51.9174C141.783 52.2683 141.647 52.5802 141.374 52.8531C141.14 53.087 140.867 53.204 140.555 53.204H128.859C128.313 53.204 127.865 53.126 127.514 52.97C127.202 52.8141 126.871 52.5802 126.52 52.2683C126.325 52.0734 125.955 51.8589 125.409 51.625C124.902 51.3521 124.239 51.2156 123.42 51.2156C122.446 51.2156 121.724 51.3716 121.257 51.6835C120.828 51.9564 120.613 52.3463 120.613 52.8531C120.613 53.204 120.789 53.5354 121.14 53.8473C121.491 54.1591 122.134 54.4321 123.07 54.666C124.005 54.8999 125.35 55.1338 127.105 55.3677C131.003 55.8356 134.122 56.5958 136.462 57.6485C138.84 58.6621 140.555 60.0267 141.608 61.7421C142.699 63.4575 143.245 65.5823 143.245 68.1165C143.245 70.9625 142.388 73.4187 140.672 75.485C138.996 77.5513 136.695 79.1497 133.771 80.2804C130.847 81.372 127.534 81.9178 123.83 81.9178Z"/>
</mask>
<path d="M123.83 81.9178C119.502 81.9178 115.935 81.333 113.128 80.1634C110.321 78.9938 108.216 77.4538 106.812 75.5435C105.408 73.6331 104.668 71.6058 104.59 69.4615C104.59 69.1106 104.707 68.8182 104.941 68.5843C105.214 68.3114 105.525 68.1749 105.876 68.1749H116.988C117.611 68.1749 118.079 68.2724 118.391 68.4673C118.742 68.6233 119.112 68.8572 119.502 69.1691C119.892 69.442 120.282 69.6954 120.672 69.9293C121.101 70.1243 121.569 70.2802 122.075 70.3972C122.621 70.4752 123.206 70.5141 123.83 70.5141C125.155 70.5141 126.208 70.3777 126.988 70.1048C127.806 69.7929 128.216 69.3835 128.216 68.8767C128.216 68.4089 127.982 68.019 127.514 67.7071C127.085 67.3952 126.325 67.1223 125.233 66.8884C124.142 66.6155 122.621 66.362 120.672 66.1281C117.592 65.6993 114.921 64.978 112.66 63.9644C110.399 62.9507 108.644 61.5667 107.397 59.8122C106.188 58.0189 105.584 55.8356 105.584 53.2625C105.584 50.6113 106.325 48.2721 107.806 46.2448C109.327 44.2175 111.412 42.6385 114.064 41.5079C116.754 40.3773 119.873 39.812 123.42 39.812C126.344 39.812 128.937 40.2018 131.198 40.9816C133.46 41.7223 135.37 42.7165 136.929 43.9641C138.489 45.1727 139.678 46.4787 140.497 47.8823C141.315 49.2858 141.744 50.6308 141.783 51.9174C141.783 52.2683 141.647 52.5802 141.374 52.8531C141.14 53.087 140.867 53.204 140.555 53.204H128.859C128.313 53.204 127.865 53.126 127.514 52.97C127.202 52.8141 126.871 52.5802 126.52 52.2683C126.325 52.0734 125.955 51.8589 125.409 51.625C124.902 51.3521 124.239 51.2156 123.42 51.2156C122.446 51.2156 121.724 51.3716 121.257 51.6835C120.828 51.9564 120.613 52.3463 120.613 52.8531C120.613 53.204 120.789 53.5354 121.14 53.8473C121.491 54.1591 122.134 54.4321 123.07 54.666C124.005 54.8999 125.35 55.1338 127.105 55.3677C131.003 55.8356 134.122 56.5958 136.462 57.6485C138.84 58.6621 140.555 60.0267 141.608 61.7421C142.699 63.4575 143.245 65.5823 143.245 68.1165C143.245 70.9625 142.388 73.4187 140.672 75.485C138.996 77.5513 136.695 79.1497 133.771 80.2804C130.847 81.372 127.534 81.9178 123.83 81.9178Z" fill="#387FE9"/>
<path d="M113.128 80.1634L111.977 82.9256L113.128 80.1634ZM106.812 75.5435L109.224 73.7717L106.812 75.5435ZM104.59 69.4615H101.597V69.5159L101.599 69.5702L104.59 69.4615ZM104.941 68.5843L107.057 70.7003L104.941 68.5843ZM118.391 68.4673L116.805 71.0049L116.984 71.1164L117.176 71.2018L118.391 68.4673ZM119.502 69.1691L117.633 71.5058L117.708 71.5656L117.786 71.6206L119.502 69.1691ZM120.672 69.9293L119.132 72.4953L119.278 72.583L119.434 72.6535L120.672 69.9293ZM122.075 70.3972L121.402 73.313L121.526 73.3415L121.652 73.3595L122.075 70.3972ZM126.988 70.1048L127.976 72.9292L128.015 72.9157L128.053 72.9012L126.988 70.1048ZM127.514 67.7071L125.754 70.1272L125.803 70.1631L125.854 70.1969L127.514 67.7071ZM125.233 66.8884L124.508 69.7914L124.557 69.8037L124.606 69.8144L125.233 66.8884ZM120.672 66.1281L120.259 69.0919L120.287 69.0958L120.315 69.0992L120.672 66.1281ZM112.66 63.9644L111.436 66.695L112.66 63.9644ZM107.397 59.8122L104.915 61.4846L104.936 61.5158L104.958 61.5464L107.397 59.8122ZM107.806 46.2448L105.412 44.4494L105.401 44.4642L105.39 44.4792L107.806 46.2448ZM114.064 41.5079L112.904 38.7492L112.897 38.7523L112.89 38.7554L114.064 41.5079ZM131.198 40.9816L130.223 43.8105L130.245 43.8181L130.267 43.8253L131.198 40.9816ZM136.929 43.9641L135.06 46.3008L135.078 46.3152L135.096 46.3293L136.929 43.9641ZM141.783 51.9174H144.776V51.8721L144.774 51.8268L141.783 51.9174ZM141.374 52.8531L139.258 50.7371L139.258 50.7371L141.374 52.8531ZM127.514 52.9701L126.176 55.6465L126.237 55.6769L126.299 55.7046L127.514 52.9701ZM126.52 52.2683L124.404 54.3842L124.466 54.4464L124.532 54.5048L126.52 52.2683ZM125.409 51.625L123.99 54.2597L124.107 54.3229L124.23 54.3755L125.409 51.625ZM121.257 51.6835L122.863 54.2081L122.89 54.191L122.917 54.1733L121.257 51.6835ZM121.14 53.8473L123.128 51.6107L123.128 51.6107L121.14 53.8473ZM123.07 54.666L123.795 51.7629H123.795L123.07 54.666ZM127.105 55.3677L126.709 58.3339L126.729 58.3365L126.748 58.3388L127.105 55.3677ZM136.462 57.6485L135.234 60.3773L135.261 60.3896L135.288 60.4013L136.462 57.6485ZM141.608 61.7421L139.057 63.3072L139.07 63.328L139.083 63.3487L141.608 61.7421ZM140.672 75.485L138.37 73.5736L138.359 73.5865L138.348 73.5996L140.672 75.485ZM133.771 80.2804L134.818 83.0838L134.834 83.0777L134.851 83.0714L133.771 80.2804ZM123.83 78.9254C119.743 78.9254 116.602 78.369 114.279 77.4012L111.977 82.9256C115.268 84.297 119.262 84.9102 123.83 84.9102V78.9254ZM114.279 77.4012C111.834 76.3827 110.226 75.1356 109.224 73.7717L104.4 77.3152C106.205 79.772 108.807 81.6049 111.977 82.9256L114.279 77.4012ZM109.224 73.7717C108.137 72.2923 107.634 70.8349 107.58 69.3528L101.599 69.5702C101.701 72.3767 102.68 74.9739 104.4 77.3152L109.224 73.7717ZM107.582 69.4615C107.582 69.6234 107.554 69.845 107.456 70.0904C107.356 70.3393 107.211 70.5454 107.057 70.7003L102.825 66.4683C101.993 67.3001 101.597 68.3704 101.597 69.4615H107.582ZM107.057 70.7003C106.964 70.7926 106.807 70.9188 106.579 71.0188C106.345 71.1212 106.101 71.1673 105.876 71.1673V65.1825C104.649 65.1825 103.597 65.6959 102.825 66.4683L107.057 70.7003ZM105.876 71.1673H116.988V65.1825H105.876V71.1673ZM116.988 71.1673C117.153 71.1673 117.213 71.1811 117.196 71.1776C117.185 71.1752 117.142 71.1657 117.077 71.1413C117.012 71.1168 116.917 71.0747 116.805 71.0049L119.977 65.9298C118.963 65.2961 117.826 65.1825 116.988 65.1825V71.1673ZM117.176 71.2018C117.235 71.228 117.387 71.3089 117.633 71.5058L121.372 66.8324C120.838 66.4055 120.249 66.0186 119.606 65.7328L117.176 71.2018ZM117.786 71.6206C118.231 71.9319 118.68 72.2237 119.132 72.4953L122.211 67.3634C121.884 67.1672 121.553 66.9522 121.218 66.7176L117.786 71.6206ZM119.434 72.6535C120.062 72.9391 120.721 73.1557 121.402 73.313L122.748 67.4814C122.416 67.4047 122.14 67.3095 121.91 67.2052L119.434 72.6535ZM121.652 73.3595C122.355 73.4599 123.082 73.5066 123.83 73.5066V67.5217C123.33 67.5217 122.887 67.4904 122.499 67.4348L121.652 73.3595ZM123.83 73.5066C125.314 73.5066 126.746 73.3599 127.976 72.9292L125.999 67.2804C125.67 67.3955 124.997 67.5217 123.83 67.5217V73.5066ZM128.053 72.9012C129.104 72.5008 131.208 71.3861 131.208 68.8767H125.223C125.223 68.5871 125.285 68.2914 125.407 68.0178C125.526 67.7517 125.676 67.5647 125.793 67.4479C126 67.2412 126.121 67.2328 125.922 67.3084L128.053 72.9012ZM131.208 68.8767C131.208 67.1967 130.281 65.9555 129.174 65.2173L125.854 70.1969C125.805 70.1639 125.633 70.037 125.474 69.773C125.304 69.4889 125.223 69.1686 125.223 68.8767H131.208ZM129.274 65.287C128.303 64.5808 127.008 64.2082 125.86 63.9624L124.606 69.8144C125.067 69.9131 125.394 70.0068 125.611 70.0849C125.848 70.17 125.856 70.2012 125.754 70.1272L129.274 65.287ZM125.959 63.9853C124.689 63.6677 123.025 63.3966 121.028 63.157L120.315 69.0992C122.217 69.3274 123.595 69.5632 124.508 69.7914L125.959 63.9853ZM121.085 63.1643C118.217 62.765 115.831 62.1067 113.884 61.2337L111.436 66.695C114.011 67.8494 116.967 68.6335 120.259 69.0919L121.085 63.1643ZM113.884 61.2337C112.035 60.4047 110.73 59.336 109.835 58.0781L104.958 61.5464C106.559 63.7973 108.763 65.4967 111.436 66.695L113.884 61.2337ZM109.878 58.1399C109.062 56.9283 108.576 55.3549 108.576 53.2625H102.592C102.592 56.3162 103.315 59.1094 104.915 61.4846L109.878 58.1399ZM108.576 53.2625C108.576 51.2084 109.137 49.4956 110.222 48.0104L105.39 44.4792C103.512 47.0487 102.592 50.0143 102.592 53.2625H108.576ZM110.2 48.0403C111.364 46.4888 113.002 45.2136 115.237 44.2605L112.89 38.7554C109.822 40.0634 107.29 41.9462 105.412 44.4494L110.2 48.0403ZM115.223 44.2666C117.476 43.3197 120.187 42.8044 123.42 42.8044V36.8196C119.558 36.8196 116.031 37.4349 112.904 38.7492L115.223 44.2666ZM123.42 42.8044C126.084 42.8044 128.336 43.16 130.223 43.8105L132.174 38.1526C129.538 37.2437 126.605 36.8196 123.42 36.8196V42.8044ZM130.267 43.8253C132.251 44.4754 133.828 45.3153 135.06 46.3008L138.799 41.6274C136.912 40.1177 134.668 38.9693 132.13 38.1379L130.267 43.8253ZM135.096 46.3293C136.416 47.3519 137.323 48.3806 137.912 49.3901L143.081 46.3745C142.033 44.5769 140.562 42.9934 138.762 41.5988L135.096 46.3293ZM137.912 49.3901C138.544 50.4733 138.772 51.3346 138.792 52.008L144.774 51.8268C144.717 49.9271 144.087 48.0983 143.081 46.3745L137.912 49.3901ZM138.791 51.9174C138.791 51.693 138.837 51.4491 138.939 51.2151C139.039 50.9866 139.166 50.8295 139.258 50.7371L143.49 54.969C144.262 54.1966 144.776 53.145 144.776 51.9174H138.791ZM139.258 50.7371C139.379 50.6156 139.564 50.4735 139.815 50.3658C140.07 50.2566 140.327 50.2116 140.555 50.2116V56.1964C141.713 56.1964 142.733 55.7264 143.49 54.969L139.258 50.7371ZM140.555 50.2116H128.859V56.1964H140.555V50.2116ZM128.859 50.2116C128.725 50.2116 128.652 50.2017 128.626 50.1973C128.601 50.1929 128.643 50.1973 128.729 50.2355L126.299 55.7046C127.158 56.0864 128.058 56.1964 128.859 56.1964V50.2116ZM128.852 50.2936C128.852 50.2936 128.85 50.2925 128.846 50.2902C128.842 50.2878 128.836 50.2843 128.827 50.2794C128.811 50.2694 128.788 50.2544 128.757 50.2329C128.696 50.1895 128.613 50.1247 128.508 50.0317L124.532 54.5048C125.016 54.9352 125.564 55.3406 126.176 55.6465L128.852 50.2936ZM128.636 50.1523C128.007 49.5232 127.173 49.1254 126.588 48.8745L124.23 54.3755C124.328 54.4173 124.407 54.4538 124.47 54.4846C124.533 54.5157 124.574 54.538 124.597 54.551C124.62 54.5645 124.613 54.5621 124.586 54.5421C124.56 54.5236 124.492 54.4723 124.404 54.3842L128.636 50.1523ZM126.827 48.9903C125.739 48.4044 124.538 48.2232 123.42 48.2232V54.2081C123.668 54.2081 123.831 54.229 123.928 54.2489C124.023 54.2685 124.033 54.2828 123.99 54.2597L126.827 48.9903ZM123.42 48.2232C122.238 48.2232 120.799 48.3919 119.597 49.1936L122.917 54.1733C122.758 54.2793 122.678 54.2796 122.781 54.2574C122.88 54.236 123.082 54.2081 123.42 54.2081V48.2232ZM119.65 49.1589C118.361 49.9791 117.621 51.3195 117.621 52.8531H123.606C123.606 53.0329 123.564 53.3175 123.396 53.6227C123.229 53.9275 123.012 54.1136 122.863 54.2081L119.65 49.1589ZM117.621 52.8531C117.621 54.3216 118.389 55.4059 119.152 56.0838L123.128 51.6107C123.155 51.6347 123.274 51.7463 123.39 51.9647C123.514 52.1999 123.606 52.5071 123.606 52.8531H117.621ZM119.152 56.0838C120.078 56.9073 121.334 57.3167 122.344 57.569L123.795 51.7629C123.426 51.6707 123.19 51.5887 123.054 51.5311C122.989 51.5035 122.966 51.4896 122.975 51.4946C122.982 51.4987 123.042 51.5341 123.128 51.6107L119.152 56.0838ZM122.344 57.569C123.443 57.8439 124.919 58.0952 126.709 58.3339L127.5 52.4016C125.782 52.1724 124.567 51.9559 123.795 51.7629L122.344 57.569ZM126.748 58.3388C130.488 58.7876 133.276 59.4966 135.234 60.3773L137.69 54.9196C134.968 53.695 131.519 52.8836 127.461 52.3966L126.748 58.3388ZM135.288 60.4013C137.258 61.2407 138.411 62.2538 139.057 63.3072L144.158 60.177C142.699 57.7996 140.422 56.0836 137.635 54.8957L135.288 60.4013ZM139.083 63.3487C139.802 64.4782 140.253 66.0115 140.253 68.1165H146.238C146.238 65.1531 145.597 62.4369 144.132 60.1355L139.083 63.3487ZM140.253 68.1165C140.253 70.3094 139.611 72.0781 138.37 73.5736L142.975 77.3964C145.164 74.7593 146.238 71.6156 146.238 68.1165H140.253ZM138.348 73.5996C137.055 75.1937 135.217 76.5132 132.692 77.4893L134.851 83.0714C138.174 81.7863 140.936 79.9088 142.996 77.3703L138.348 73.5996ZM132.725 77.4769C130.192 78.4227 127.241 78.9254 123.83 78.9254V84.9102C127.826 84.9102 131.503 84.3213 134.818 83.0838L132.725 77.4769Z" fill="#333333" mask="url(#path-5-outside-1_3920_274)"/>
<mask id="path-7-outside-2_3920_274" maskUnits="userSpaceOnUse" x="36.5078" y="37.333" width="50" height="47" fill="black">
<rect fill="white" x="36.5078" y="37.333" width="50" height="47"/>
<path d="M41.3032 81.333C40.8743 81.333 40.504 81.1771 40.1921 80.8652C39.8802 80.5533 39.7242 80.1829 39.7242 79.754V41.9757C39.7242 41.5469 39.8802 41.1765 40.1921 40.8646C40.504 40.5527 40.8743 40.3968 41.3032 40.3968H50.5431C51.3228 40.3968 51.9076 40.6112 52.2975 41.0401C52.6874 41.4689 52.9408 41.7808 53.0577 41.9757L61.5374 56.011L70.017 41.9757C70.134 41.7808 70.3874 41.4689 70.7773 41.0401C71.1672 40.6112 71.752 40.3968 72.5317 40.3968H81.7716C82.2004 40.3968 82.5708 40.5527 82.8827 40.8646C83.1946 41.1765 83.3506 41.5469 83.3506 41.9757V79.754C83.3506 80.1829 83.1946 80.5533 82.8827 80.8652C82.5708 81.1771 82.2004 81.333 81.7716 81.333H71.1866C70.7578 81.333 70.3874 81.1771 70.0755 80.8652C69.7636 80.5533 69.6077 80.1829 69.6077 79.754V63.7304L65.748 70.0463C65.553 70.3582 65.2801 70.6896 64.9293 71.0405C64.6174 71.3524 64.169 71.5083 63.5842 71.5083H59.4906C58.9058 71.5083 58.4379 71.3524 58.0871 71.0405C57.7752 70.6896 57.5217 70.3582 57.3268 70.0463L53.4671 63.7304V79.754C53.4671 80.1829 53.3112 80.5533 52.9993 80.8652C52.6874 81.1771 52.317 81.333 51.8881 81.333H41.3032Z"/>
</mask>
<path d="M41.3032 81.333C40.8743 81.333 40.504 81.1771 40.1921 80.8652C39.8802 80.5533 39.7242 80.1829 39.7242 79.754V41.9757C39.7242 41.5469 39.8802 41.1765 40.1921 40.8646C40.504 40.5527 40.8743 40.3968 41.3032 40.3968H50.5431C51.3228 40.3968 51.9076 40.6112 52.2975 41.0401C52.6874 41.4689 52.9408 41.7808 53.0577 41.9757L61.5374 56.011L70.017 41.9757C70.134 41.7808 70.3874 41.4689 70.7773 41.0401C71.1672 40.6112 71.752 40.3968 72.5317 40.3968H81.7716C82.2004 40.3968 82.5708 40.5527 82.8827 40.8646C83.1946 41.1765 83.3506 41.5469 83.3506 41.9757V79.754C83.3506 80.1829 83.1946 80.5533 82.8827 80.8652C82.5708 81.1771 82.2004 81.333 81.7716 81.333H71.1866C70.7578 81.333 70.3874 81.1771 70.0755 80.8652C69.7636 80.5533 69.6077 80.1829 69.6077 79.754V63.7304L65.748 70.0463C65.553 70.3582 65.2801 70.6896 64.9293 71.0405C64.6174 71.3524 64.169 71.5083 63.5842 71.5083H59.4906C58.9058 71.5083 58.4379 71.3524 58.0871 71.0405C57.7752 70.6896 57.5217 70.3582 57.3268 70.0463L53.4671 63.7304V79.754C53.4671 80.1829 53.3112 80.5533 52.9993 80.8652C52.6874 81.1771 52.317 81.333 51.8881 81.333H41.3032Z" fill="#E9383D"/>
<path d="M40.1921 80.8652L38.0761 82.9811H38.0761L40.1921 80.8652ZM40.1921 40.8646L38.0761 38.7487L38.0761 38.7487L40.1921 40.8646ZM52.2975 41.0401L50.0833 43.053L50.0833 43.053L52.2975 41.0401ZM53.0577 41.9757L50.4918 43.5153L50.4965 43.5232L53.0577 41.9757ZM61.5374 56.011L58.9761 57.5585L61.5374 61.7978L64.0986 57.5584L61.5374 56.011ZM70.017 41.9757L72.5783 43.5232L72.583 43.5153L70.017 41.9757ZM70.7773 41.0401L72.9915 43.053L72.9915 43.053L70.7773 41.0401ZM70.0755 80.8652L67.9596 82.9811L67.9596 82.9811L70.0755 80.8652ZM69.6077 63.7304H72.6001V53.0951L67.0543 62.17L69.6077 63.7304ZM65.748 70.0463L68.2855 71.6323L68.2935 71.6195L68.3013 71.6067L65.748 70.0463ZM64.9293 71.0405L67.0452 73.1564L64.9293 71.0405ZM58.0871 71.0405L55.8505 73.0285L55.9674 73.1601L56.099 73.277L58.0871 71.0405ZM57.3268 70.0463L54.7734 71.6067L54.7813 71.6195L54.7892 71.6323L57.3268 70.0463ZM53.4671 63.7304L56.0205 62.17L50.4747 53.0951V63.7304H53.4671ZM52.9993 80.8652L50.8833 78.7492L50.8833 78.7492L52.9993 80.8652ZM41.3032 78.3406C41.4605 78.3406 41.6584 78.3711 41.865 78.4581C42.0699 78.5444 42.2171 78.6582 42.308 78.7492L38.0761 82.9811C38.9313 83.8363 40.0557 84.3254 41.3032 84.3254V78.3406ZM42.308 78.7492C42.399 78.8402 42.5128 78.9873 42.5991 79.1922C42.6861 79.3988 42.7166 79.5968 42.7166 79.754H36.7318C36.7318 81.0015 37.2209 82.1259 38.0761 82.9811L42.308 78.7492ZM42.7166 79.754V41.9757H36.7318V79.754H42.7166ZM42.7166 41.9757C42.7166 42.133 42.6861 42.3309 42.5991 42.5376C42.5128 42.7425 42.399 42.8896 42.308 42.9806L38.0761 38.7487C37.2209 39.6038 36.7318 40.7283 36.7318 41.9757H42.7166ZM42.308 42.9806C42.2171 43.0715 42.0699 43.1854 41.865 43.2717C41.6584 43.3586 41.4605 43.3892 41.3032 43.3892V37.4044C40.0557 37.4044 38.9313 37.8935 38.0761 38.7487L42.308 42.9806ZM41.3032 43.3892H50.5431V37.4044H41.3032V43.3892ZM50.5431 43.3892C50.6664 43.3892 50.6452 43.407 50.5363 43.3671C50.4103 43.3209 50.237 43.2221 50.0833 43.053L54.5117 39.0272C53.378 37.78 51.8615 37.4044 50.5431 37.4044V43.3892ZM50.0833 43.053C50.2557 43.2426 50.3772 43.3838 50.4575 43.4826C50.4971 43.5313 50.5192 43.5606 50.5284 43.5732C50.5398 43.5888 50.5228 43.567 50.4918 43.5153L55.6237 40.4362C55.3357 39.9562 54.8922 39.4457 54.5117 39.0271L50.0833 43.053ZM50.4965 43.5232L58.9761 57.5585L64.0986 54.4636L55.619 40.4283L50.4965 43.5232ZM64.0986 57.5584L72.5783 43.5232L67.4558 40.4283L58.9761 54.4636L64.0986 57.5584ZM72.583 43.5153C72.552 43.567 72.535 43.5888 72.5464 43.5732C72.5556 43.5606 72.5777 43.5313 72.6173 43.4826C72.6976 43.3838 72.8191 43.2426 72.9915 43.053L68.5631 39.0271C68.1825 39.4457 67.7391 39.9562 67.4511 40.4362L72.583 43.5153ZM72.9915 43.053C72.8378 43.2221 72.6645 43.3209 72.5384 43.3671C72.4296 43.407 72.4083 43.3892 72.5317 43.3892V37.4044C71.2133 37.4044 69.6968 37.78 68.5631 39.0272L72.9915 43.053ZM72.5317 43.3892H81.7716V37.4044H72.5317V43.3892ZM81.7716 43.3892C81.6143 43.3892 81.4164 43.3586 81.2098 43.2717C81.0048 43.1854 80.8577 43.0715 80.7668 42.9806L84.9987 38.7487C84.1435 37.8935 83.0191 37.4044 81.7716 37.4044V43.3892ZM80.7668 42.9806C80.6758 42.8896 80.562 42.7425 80.4757 42.5376C80.3887 42.331 80.3581 42.133 80.3581 41.9757H86.343C86.343 40.7283 85.8538 39.6038 84.9987 38.7487L80.7668 42.9806ZM80.3581 41.9757V79.754H86.343V41.9757H80.3581ZM80.3581 79.754C80.3581 79.5968 80.3887 79.3988 80.4757 79.1922C80.562 78.9873 80.6758 78.8402 80.7668 78.7492L84.9987 82.9811C85.8538 82.1259 86.343 81.0015 86.343 79.754H80.3581ZM80.7668 78.7492C80.8577 78.6582 81.0048 78.5444 81.2098 78.4581C81.4164 78.3711 81.6143 78.3406 81.7716 78.3406V84.3254C83.0191 84.3254 84.1435 83.8363 84.9987 82.9811L80.7668 78.7492ZM81.7716 78.3406H71.1866V84.3254H81.7716V78.3406ZM71.1866 78.3406C71.3439 78.3406 71.5418 78.3711 71.7484 78.4581C71.9534 78.5444 72.1005 78.6582 72.1915 78.7492L67.9596 82.9811C68.8147 83.8363 69.9392 84.3254 71.1866 84.3254V78.3406ZM72.1915 78.7492C72.2824 78.8402 72.3963 78.9873 72.4826 79.1922C72.5695 79.3988 72.6001 79.5968 72.6001 79.754H66.6153C66.6153 81.0015 67.1044 82.1259 67.9596 82.9811L72.1915 78.7492ZM72.6001 79.754V63.7304H66.6153V79.754H72.6001ZM67.0543 62.17L63.1946 68.4859L68.3013 71.6067L72.161 65.2908L67.0543 62.17ZM63.2104 68.4603C63.1688 68.5268 63.0557 68.6821 62.8133 68.9245L67.0452 73.1564C67.5046 72.697 67.9372 72.1896 68.2855 71.6323L63.2104 68.4603ZM62.8133 68.9245C63.0005 68.7373 63.2069 68.6238 63.376 68.565C63.5315 68.5109 63.6167 68.5159 63.5842 68.5159V74.5007C64.695 74.5007 66.0076 74.194 67.0452 73.1564L62.8133 68.9245ZM63.5842 68.5159H59.4906V74.5007H63.5842V68.5159ZM59.4906 68.5159C59.4617 68.5159 59.5255 68.5119 59.6474 68.5525C59.7782 68.5961 59.9325 68.6771 60.0751 68.8039L56.099 73.277C57.123 74.1872 58.36 74.5007 59.4906 74.5007V68.5159ZM60.3236 69.0524C60.0943 68.7944 59.95 68.5974 59.8644 68.4603L54.7892 71.6323C55.0935 72.119 55.456 72.5847 55.8505 73.0285L60.3236 69.0524ZM59.8802 68.4859L56.0205 62.17L50.9137 65.2908L54.7734 71.6067L59.8802 68.4859ZM50.4747 63.7304V79.754H56.4595V63.7304H50.4747ZM50.4747 79.754C50.4747 79.5968 50.5052 79.3988 50.5922 79.1922C50.6785 78.9873 50.7923 78.8402 50.8833 78.7492L55.1152 82.9811C55.9704 82.1259 56.4595 81.0015 56.4595 79.754H50.4747ZM50.8833 78.7492C50.9743 78.6582 51.1214 78.5444 51.3263 78.4581C51.5329 78.3711 51.7309 78.3406 51.8881 78.3406V84.3254C53.1356 84.3254 54.26 83.8363 55.1152 82.9811L50.8833 78.7492ZM51.8881 78.3406H41.3032V84.3254H51.8881V78.3406Z" fill="#333333" mask="url(#path-7-outside-2_3920_274)"/>
<mask id="path-9-outside-3_3920_274" maskUnits="userSpaceOnUse" x="73.6133" y="53.4919" width="44" height="47" fill="black">
<rect fill="white" x="73.6133" y="53.4919" width="44" height="47"/>
<path d="M78.4087 97.4919C77.9798 97.4919 77.6094 97.336 77.2975 97.0241C76.9856 96.7122 76.8297 96.3418 76.8297 95.913V58.1347C76.8297 57.7058 76.9856 57.3355 77.2975 57.0236C77.6094 56.7117 77.9798 56.5557 78.4087 56.5557H96.1282C99.676 56.5557 102.756 57.082 105.368 58.1347C108.019 59.1483 110.066 60.7273 111.509 62.8716C112.99 64.9769 113.731 67.6475 113.731 70.8834C113.731 74.1193 112.99 76.7704 111.509 78.8367C110.066 80.864 108.019 82.365 105.368 83.3397C102.756 84.2754 99.676 84.7432 96.1282 84.7432H92.0346V95.913C92.0346 96.3418 91.8786 96.7122 91.5667 97.0241C91.2548 97.336 90.8845 97.4919 90.4556 97.4919H78.4087ZM91.7422 73.9244H95.8358C96.4596 73.9244 97.0639 73.6905 97.6487 73.2226C98.2335 72.7158 98.5259 71.8971 98.5259 70.7664C98.5259 70.0257 98.331 69.2849 97.9411 68.5442C97.5902 67.8034 96.8885 67.4331 95.8358 67.4331H91.7422V73.9244Z"/>
</mask>
<path d="M78.4087 97.4919C77.9798 97.4919 77.6094 97.336 77.2975 97.0241C76.9856 96.7122 76.8297 96.3418 76.8297 95.913V58.1347C76.8297 57.7058 76.9856 57.3355 77.2975 57.0236C77.6094 56.7117 77.9798 56.5557 78.4087 56.5557H96.1282C99.676 56.5557 102.756 57.082 105.368 58.1347C108.019 59.1483 110.066 60.7273 111.509 62.8716C112.99 64.9769 113.731 67.6475 113.731 70.8834C113.731 74.1193 112.99 76.7704 111.509 78.8367C110.066 80.864 108.019 82.365 105.368 83.3397C102.756 84.2754 99.676 84.7432 96.1282 84.7432H92.0346V95.913C92.0346 96.3418 91.8786 96.7122 91.5667 97.0241C91.2548 97.336 90.8845 97.4919 90.4556 97.4919H78.4087ZM91.7422 73.9244H95.8358C96.4596 73.9244 97.0639 73.6905 97.6487 73.2226C98.2335 72.7158 98.5259 71.8971 98.5259 70.7664C98.5259 70.0257 98.331 69.2849 97.9411 68.5442C97.5902 67.8034 96.8885 67.4331 95.8358 67.4331H91.7422V73.9244Z" fill="#38E96A"/>
<path d="M77.2975 97.0241L75.1816 99.1401H75.1816L77.2975 97.0241ZM77.2975 57.0236L75.1816 54.9076L75.1816 54.9076L77.2975 57.0236ZM105.368 58.1347L104.25 60.9102L104.274 60.9202L104.299 60.9298L105.368 58.1347ZM111.509 62.8716L109.026 64.5419L109.043 64.568L109.061 64.5937L111.509 62.8716ZM111.509 78.8367L109.077 77.0931L109.07 77.1019L111.509 78.8367ZM105.368 83.3397L106.377 86.1568L106.389 86.1526L106.401 86.1483L105.368 83.3397ZM92.0346 84.7432V81.7508H89.0422V84.7432H92.0346ZM91.5667 97.0241L89.4508 94.9081L89.4508 94.9081L91.5667 97.0241ZM91.7422 73.9244H88.7498V76.9168H91.7422V73.9244ZM97.6487 73.2226L99.518 75.5593L99.564 75.5225L99.6085 75.4839L97.6487 73.2226ZM97.9411 68.5442L95.2367 69.8252L95.2637 69.8821L95.2931 69.9379L97.9411 68.5442ZM91.7422 67.4331V64.4406H88.7498V67.4331H91.7422ZM78.4087 94.4995C78.5659 94.4995 78.7639 94.5301 78.9705 94.6171C79.1754 94.7034 79.3225 94.8172 79.4135 94.9081L75.1816 99.1401C76.0368 99.9952 77.1612 100.484 78.4087 100.484V94.4995ZM79.4135 94.9081C79.5045 94.9991 79.6183 95.1462 79.7046 95.3512C79.7916 95.5578 79.8221 95.7557 79.8221 95.913H73.8373C73.8373 97.1604 74.3264 98.2849 75.1816 99.1401L79.4135 94.9081ZM79.8221 95.913V58.1347H73.8373V95.913H79.8221ZM79.8221 58.1347C79.8221 58.292 79.7916 58.4899 79.7046 58.6965C79.6183 58.9014 79.5045 59.0485 79.4135 59.1395L75.1816 54.9076C74.3264 55.7628 73.8373 56.8872 73.8373 58.1347H79.8221ZM79.4135 59.1395C79.3225 59.2305 79.1754 59.3443 78.9705 59.4306C78.7639 59.5176 78.5659 59.5481 78.4087 59.5481V53.5633C77.1612 53.5633 76.0368 54.0524 75.1816 54.9076L79.4135 59.1395ZM78.4087 59.5481H96.1282V53.5633H78.4087V59.5481ZM96.1282 59.5481C99.3885 59.5481 102.072 60.0327 104.25 60.9102L106.487 55.3592C103.44 54.1313 99.9635 53.5633 96.1282 53.5633V59.5481ZM104.299 60.9298C106.434 61.7459 107.961 62.9596 109.026 64.5419L113.991 61.2013C112.171 58.495 109.605 56.5508 106.437 55.3396L104.299 60.9298ZM109.061 64.5937C110.106 66.0785 110.738 68.1046 110.738 70.8834H116.723C116.723 67.1903 115.874 63.8752 113.956 61.1495L109.061 64.5937ZM110.738 70.8834C110.738 73.665 110.105 75.6585 109.077 77.0931L113.94 80.5804C115.875 77.8823 116.723 74.5736 116.723 70.8834H110.738ZM109.07 77.1019C108.023 78.5732 106.5 79.7354 104.336 80.5311L106.401 86.1483C109.539 84.9947 112.109 83.1548 113.947 80.5716L109.07 77.1019ZM104.359 80.5226C102.147 81.315 99.4233 81.7508 96.1282 81.7508V87.7356C99.9287 87.7356 103.365 87.2357 106.377 86.1568L104.359 80.5226ZM96.1282 81.7508H92.0346V87.7356H96.1282V81.7508ZM89.0422 84.7432V95.913H95.027V84.7432H89.0422ZM89.0422 95.913C89.0422 95.7557 89.0727 95.5578 89.1597 95.3512C89.246 95.1462 89.3598 94.9991 89.4508 94.9081L93.6827 99.1401C94.5379 98.2849 95.027 97.1604 95.027 95.913H89.0422ZM89.4508 94.9081C89.5418 94.8172 89.6889 94.7034 89.8938 94.6171C90.1004 94.5301 90.2983 94.4995 90.4556 94.4995V100.484C91.7031 100.484 92.8275 99.9952 93.6827 99.1401L89.4508 94.9081ZM90.4556 94.4995H78.4087V100.484H90.4556V94.4995ZM91.7422 76.9168H95.8358V70.932H91.7422V76.9168ZM95.8358 76.9168C97.2681 76.9168 98.513 76.3633 99.518 75.5593L95.7793 70.8859C95.689 70.9582 95.6538 70.9671 95.6766 70.9583C95.688 70.9539 95.7096 70.9467 95.7401 70.9409C95.7707 70.9351 95.8035 70.932 95.8358 70.932V76.9168ZM99.6085 75.4839C101.105 74.1868 101.518 72.3561 101.518 70.7664H95.5335C95.5335 70.9217 95.5233 71.0348 95.5118 71.112C95.5002 71.189 95.4885 71.2221 95.4885 71.222C95.489 71.2205 95.5017 71.1859 95.537 71.1326C95.5733 71.0778 95.6241 71.0174 95.6889 70.9613L99.6085 75.4839ZM101.518 70.7664C101.518 69.48 101.175 68.2644 100.589 67.1505L95.2931 69.9379C95.4865 70.3054 95.5335 70.5714 95.5335 70.7664H101.518ZM100.645 67.2632C99.6507 65.1631 97.6511 64.4406 95.8358 64.4406V70.4255C96.0282 70.4255 95.952 70.4613 95.7549 70.3573C95.6522 70.3031 95.5411 70.223 95.4398 70.1161C95.3392 70.0099 95.2746 69.9052 95.2367 69.8252L100.645 67.2632ZM95.8358 64.4406H91.7422V70.4255H95.8358V64.4406ZM88.7498 67.4331V73.9244H94.7346V67.4331H88.7498Z" fill="#333333" mask="url(#path-9-outside-3_3920_274)"/>
<path d="M97.0751 96.5828C96.9864 96.5828 96.9178 96.5505 96.8694 96.486C96.8129 96.4214 96.7928 96.3448 96.8089 96.2561L98.0067 90.6178C98.0229 90.529 98.0713 90.4524 98.1519 90.3879C98.2326 90.3234 98.3173 90.2911 98.406 90.2911H100.523C100.612 90.2911 100.681 90.3234 100.729 90.3879C100.778 90.4524 100.794 90.529 100.778 90.6178L100.693 91.0412C100.894 90.8235 101.132 90.646 101.407 90.5089C101.681 90.3637 102.044 90.2911 102.496 90.2911H103.318C103.407 90.2911 103.476 90.3234 103.524 90.3879C103.572 90.4524 103.589 90.529 103.572 90.6178L103.173 92.5053C103.157 92.594 103.109 92.6706 103.028 92.7352C102.947 92.7997 102.863 92.832 102.774 92.832H101.213C100.971 92.832 100.778 92.8925 100.632 93.0134C100.495 93.1344 100.398 93.3159 100.342 93.5579L99.7612 96.2561C99.745 96.3448 99.6966 96.4214 99.616 96.486C99.5434 96.5505 99.4627 96.5828 99.374 96.5828H97.0751ZM106.435 96.7038C105.733 96.7038 105.14 96.6029 104.656 96.4013C104.172 96.1996 103.817 95.8971 103.591 95.4938C103.373 95.0905 103.305 94.5944 103.386 94.0056C103.41 93.8201 103.442 93.6305 103.482 93.4369C103.523 93.2353 103.571 93.0457 103.628 92.8683C103.797 92.2714 104.047 91.7753 104.378 91.38C104.717 90.9767 105.152 90.6742 105.684 90.4726C106.217 90.2709 106.85 90.1701 107.584 90.1701C108.245 90.1701 108.818 90.2709 109.302 90.4726C109.794 90.6742 110.161 90.9767 110.403 91.38C110.653 91.7753 110.734 92.2714 110.645 92.8683C110.613 93.0457 110.577 93.2353 110.536 93.4369C110.496 93.6305 110.452 93.8201 110.403 94.0056C110.242 94.5944 110 95.0905 109.677 95.4938C109.355 95.8971 108.927 96.1996 108.395 96.4013C107.87 96.6029 107.217 96.7038 106.435 96.7038ZM106.725 94.7679C106.959 94.7679 107.116 94.7033 107.197 94.5743C107.286 94.4371 107.37 94.2274 107.451 93.9451C107.483 93.8241 107.524 93.6547 107.572 93.4369C107.62 93.2191 107.653 93.0497 107.669 92.9288C107.709 92.6626 107.713 92.4609 107.681 92.3238C107.657 92.1786 107.528 92.106 107.294 92.106C107.068 92.106 106.911 92.1786 106.822 92.3238C106.733 92.4609 106.652 92.6626 106.58 92.9288C106.548 93.0497 106.507 93.2191 106.459 93.4369C106.41 93.6547 106.378 93.8241 106.362 93.9451C106.322 94.2274 106.314 94.4371 106.338 94.5743C106.37 94.7033 106.499 94.7679 106.725 94.7679ZM109.213 98.8816C109.124 98.8816 109.056 98.8494 109.007 98.7849C108.959 98.7203 108.943 98.6437 108.959 98.555L109.273 97.0909C109.29 97.0022 109.338 96.9256 109.419 96.861C109.491 96.7965 109.572 96.7643 109.661 96.7643H110.35C110.536 96.7643 110.681 96.7078 110.786 96.5949C110.891 96.49 110.963 96.3448 111.004 96.1593L112.177 90.6178C112.193 90.529 112.242 90.4524 112.322 90.3879C112.403 90.3234 112.488 90.2911 112.577 90.2911H114.851C114.94 90.2911 115.009 90.3234 115.057 90.3879C115.105 90.4524 115.121 90.529 115.105 90.6178L113.92 96.2319C113.791 96.8369 113.565 97.3329 113.242 97.7201C112.927 98.1154 112.528 98.4057 112.044 98.5913C111.568 98.7849 111.016 98.8816 110.387 98.8816H109.213ZM112.782 89.6256C112.694 89.6256 112.621 89.5934 112.564 89.5288C112.516 89.4643 112.5 89.3877 112.516 89.2989L112.831 87.8349C112.847 87.7462 112.895 87.6696 112.976 87.605C113.057 87.5405 113.141 87.5082 113.23 87.5082H115.384C115.472 87.5082 115.541 87.5405 115.589 87.605C115.638 87.6696 115.654 87.7462 115.638 87.8349L115.323 89.2989C115.307 89.3877 115.259 89.4643 115.178 89.5288C115.105 89.5934 115.025 89.6256 114.936 89.6256H112.782ZM118.333 96.7038C117.631 96.7038 117.042 96.5908 116.566 96.365C116.098 96.1311 115.776 95.7761 115.598 95.3002C115.421 94.8163 115.409 94.1992 115.562 93.449C115.57 93.4329 115.574 93.4168 115.574 93.4006C115.574 93.3845 115.578 93.3724 115.586 93.3643C115.747 92.6706 116.018 92.0858 116.397 91.6099C116.784 91.134 117.26 90.7751 117.824 90.5331C118.397 90.2911 119.026 90.1701 119.712 90.1701C120.502 90.1701 121.115 90.3234 121.551 90.6299C121.995 90.9283 122.285 91.3276 122.422 91.8277C122.567 92.3197 122.579 92.8642 122.458 93.4611L122.386 93.8241C122.37 93.9128 122.321 93.9895 122.241 94.054C122.16 94.1185 122.075 94.1508 121.987 94.1508H118.381C118.381 94.1589 118.377 94.1669 118.369 94.175C118.369 94.1831 118.369 94.1952 118.369 94.2113C118.337 94.3726 118.32 94.5097 118.32 94.6227C118.329 94.7275 118.361 94.8082 118.417 94.8647C118.482 94.9211 118.571 94.9493 118.683 94.9493C118.732 94.9493 118.776 94.9413 118.817 94.9251C118.857 94.909 118.897 94.8848 118.938 94.8526C118.978 94.8122 119.026 94.7719 119.083 94.7316C119.171 94.659 119.24 94.6146 119.288 94.5985C119.345 94.5743 119.422 94.5622 119.518 94.5622H121.805C121.886 94.5622 121.946 94.5864 121.987 94.6348C122.027 94.6832 122.035 94.7477 122.011 94.8284C121.97 94.9816 121.862 95.1671 121.684 95.3849C121.507 95.5946 121.261 95.8003 120.946 96.002C120.64 96.2036 120.264 96.373 119.821 96.5102C119.385 96.6392 118.889 96.7038 118.333 96.7038ZM118.708 92.6384H119.676V92.6263C119.716 92.4488 119.728 92.3036 119.712 92.1907C119.696 92.0778 119.655 91.9971 119.591 91.9487C119.534 91.8922 119.454 91.864 119.349 91.864C119.244 91.864 119.147 91.8922 119.059 91.9487C118.978 91.9971 118.909 92.0778 118.853 92.1907C118.796 92.3036 118.748 92.4488 118.708 92.6263V92.6384ZM125.726 96.7038C125.154 96.7038 124.625 96.5989 124.141 96.3892C123.665 96.1714 123.303 95.8568 123.052 95.4454C122.802 95.034 122.722 94.5299 122.81 93.933C122.835 93.8039 122.867 93.6426 122.907 93.449C122.948 93.2554 122.984 93.0901 123.016 92.953C123.25 92.0576 123.706 91.372 124.383 90.8961C125.061 90.4121 125.892 90.1701 126.876 90.1701C127.481 90.1701 127.993 90.2629 128.412 90.4484C128.832 90.6258 129.163 90.8477 129.405 91.1138C129.655 91.372 129.828 91.6301 129.925 91.8882C130.03 92.1463 130.07 92.356 130.046 92.5174C130.038 92.6061 129.989 92.6827 129.901 92.7473C129.82 92.8118 129.735 92.8441 129.647 92.8441H127.287C127.199 92.8441 127.13 92.8239 127.082 92.7836C127.041 92.7352 127.009 92.6747 126.985 92.6021C126.952 92.4891 126.912 92.4004 126.864 92.3359C126.823 92.2714 126.743 92.2391 126.622 92.2391C126.436 92.2391 126.295 92.3077 126.198 92.4448C126.11 92.5819 126.033 92.7715 125.968 93.0134C125.928 93.1909 125.892 93.3522 125.86 93.4974C125.827 93.6345 125.803 93.7596 125.787 93.8725C125.747 94.1306 125.743 94.3242 125.775 94.4533C125.815 94.5743 125.928 94.6348 126.114 94.6348C126.259 94.6348 126.364 94.6025 126.428 94.538C126.493 94.4734 126.561 94.3847 126.634 94.2718C126.682 94.1992 126.739 94.1427 126.803 94.1024C126.868 94.054 126.944 94.0298 127.033 94.0298H129.393C129.481 94.0298 129.554 94.0621 129.61 94.1266C129.667 94.1911 129.683 94.2677 129.659 94.3565C129.618 94.4855 129.522 94.6791 129.368 94.9372C129.215 95.1873 128.985 95.4495 128.679 95.7237C128.38 95.998 127.989 96.2319 127.505 96.4255C127.021 96.611 126.428 96.7038 125.726 96.7038ZM133.955 96.5828C133.374 96.5828 132.862 96.5061 132.419 96.3529C131.975 96.1916 131.652 95.9213 131.451 95.5422C131.249 95.1631 131.217 94.6428 131.354 93.9814L131.693 92.4085H130.737C130.648 92.4085 130.579 92.3762 130.531 92.3117C130.483 92.2472 130.466 92.1705 130.483 92.0818L130.785 90.6178C130.801 90.529 130.85 90.4524 130.93 90.3879C131.011 90.3234 131.096 90.2911 131.184 90.2911H132.14L132.564 88.3189C132.58 88.2302 132.624 88.1535 132.697 88.089C132.777 88.0245 132.862 87.9922 132.951 87.9922H135.068C135.157 87.9922 135.226 88.0245 135.274 88.089C135.33 88.1535 135.351 88.2302 135.334 88.3189L134.911 90.2911H136.436C136.524 90.2911 136.593 90.3234 136.641 90.3879C136.69 90.4524 136.706 90.529 136.69 90.6178L136.387 92.0818C136.371 92.1705 136.323 92.2472 136.242 92.3117C136.161 92.3762 136.077 92.4085 135.988 92.4085H134.463L134.173 93.7394C134.149 93.8604 134.145 93.9693 134.161 94.0661C134.177 94.1548 134.217 94.2234 134.282 94.2718C134.354 94.3202 134.451 94.3444 134.572 94.3444H135.673C135.762 94.3444 135.831 94.3766 135.879 94.4412C135.927 94.5057 135.943 94.5823 135.927 94.6711L135.589 96.2561C135.572 96.3448 135.524 96.4214 135.443 96.486C135.371 96.5505 135.29 96.5828 135.201 96.5828H133.955Z" fill="#333333"/>
<g filter="url(#filter2_d_3920_274)">
<path d="M21.8991 4.92523C26.5394 29.2345 18.821 25.9002 4.87994 31.7839C25.9265 26.4716 26.7986 34.7601 31.4774 48.1094C27.3011 29.2803 33.4306 25.4513 48.9851 22.0013C27.4954 26.7678 26.384 19.8207 21.8991 4.92523Z" fill="#F9B634"/>
<path d="M21.8991 4.92523C26.5394 29.2345 18.821 25.9002 4.87994 31.7839C25.9265 26.4716 26.7986 34.7601 31.4774 48.1094C27.3011 29.2803 33.4306 25.4513 48.9851 22.0013C27.4954 26.7678 26.384 19.8207 21.8991 4.92523Z" stroke="#333333" stroke-width="1.28233"/>
</g>
<path d="M182.065 82.6313H174.909V50.6638H191.608C199.003 50.6638 203.775 54.8626 203.775 62.2103C203.775 69.5581 199.003 73.8045 191.608 73.8045H182.065V82.6313ZM190.845 57.1051H182.065V67.3633H190.845C194.805 67.3633 196.665 66.2182 196.665 62.2103C196.665 58.2979 194.805 57.1051 190.845 57.1051ZM219.052 83.1085C210.894 83.1085 205.407 78.2418 205.407 70.7032C205.407 63.0691 210.894 58.2502 219.052 58.2502C227.211 58.2502 232.698 63.0691 232.698 70.7032C232.698 78.2418 227.211 83.1085 219.052 83.1085ZM219.052 76.7627C223.871 76.7627 225.589 74.9019 225.589 70.7032C225.589 66.5045 223.871 64.5482 219.052 64.5482C214.186 64.5482 212.516 66.5045 212.516 70.7032C212.516 74.9019 214.186 76.7627 219.052 76.7627ZM242.778 82.6313H235.621V58.7273H242.253V65.0731H242.683C243.351 61.2083 245.879 58.2502 250.698 58.2502C256.042 58.2502 258.237 61.924 258.237 66.5999V70.56H251.08V68.079C251.08 65.4548 250.03 64.3097 247.12 64.3097C243.923 64.3097 242.778 65.7888 242.778 68.7947V82.6313ZM277.671 82.6313H271.755C266.172 82.6313 262.785 80.0071 262.785 73.9953V64.6437H259.016V58.7273H262.785V54.0992H269.942V58.7273H277.671V64.6437H269.942V73.1842C269.942 75.5699 270.848 76.1901 273.377 76.1901H277.671V82.6313ZM289.417 82.6313H282.26V64.6437H278.873V58.7273H282.403C283.167 53.9083 287.365 50.6638 294.713 50.6638H296.813V55.8645H293.568C290.419 55.8645 288.94 56.3894 289.131 58.7273H296.813V64.6437H289.417V82.6313ZM311.915 83.1085C303.756 83.1085 298.269 78.2418 298.269 70.7032C298.269 63.0691 303.756 58.2502 311.915 58.2502C320.074 58.2502 325.561 63.0691 325.561 70.7032C325.561 78.2418 320.074 83.1085 311.915 83.1085ZM311.915 76.7627C316.734 76.7627 318.452 74.9019 318.452 70.7032C318.452 66.5045 316.734 64.5482 311.915 64.5482C307.048 64.5482 305.378 66.5045 305.378 70.7032C305.378 74.9019 307.048 76.7627 311.915 76.7627ZM335.641 82.6313H328.484V50.6638H335.641V82.6313ZM346.544 56.2939H339.387V50.6638H346.544V56.2939ZM346.544 82.6313H339.387V58.7273H346.544V82.6313ZM363.029 83.1085C354.87 83.1085 349.383 78.2418 349.383 70.7032C349.383 63.0691 354.87 58.2502 363.029 58.2502C371.188 58.2502 376.675 63.0691 376.675 70.7032C376.675 78.2418 371.188 83.1085 363.029 83.1085ZM363.029 76.7627C367.848 76.7627 369.566 74.9019 369.566 70.7032C369.566 66.5045 367.848 64.5482 363.029 64.5482C358.163 64.5482 356.493 66.5045 356.493 70.7032C356.493 74.9019 358.163 76.7627 363.029 76.7627Z" fill="#333333"/>
<defs>
<filter id="filter0_d_3920_274" x="35.7551" y="76.6057" width="109.232" height="30.2324" filterUnits="userSpaceOnUse" color-interpolation-filters="sRGB">
<feFlood flood-opacity="0" result="BackgroundImageFix"/>
<feColorMatrix in="SourceAlpha" type="matrix" values="0 0 0 0 0 0 0 0 0 0 0 0 0 0 0 0 0 0 127 0" result="hardAlpha"/>
<feOffset dy="0.752688"/>
<feGaussianBlur stdDeviation="0.376344"/>
<feComposite in2="hardAlpha" operator="out"/>
<feColorMatrix type="matrix" values="0 0 0 0 0 0 0 0 0 0 0 0 0 0 0 0 0 0 0.25 0"/>
<feBlend mode="normal" in2="BackgroundImageFix" result="effect1_dropShadow_3920_274"/>
<feBlend mode="normal" in="SourceGraphic" in2="effect1_dropShadow_3920_274" result="shape"/>
</filter>
<filter id="filter1_d_3920_274" x="20.2092" y="20.9514" width="139.882" height="94.8745" filterUnits="userSpaceOnUse" color-interpolation-filters="sRGB">
<feFlood flood-opacity="0" result="BackgroundImageFix"/>
<feColorMatrix in="SourceAlpha" type="matrix" values="0 0 0 0 0 0 0 0 0 0 0 0 0 0 0 0 0 0 127 0" result="hardAlpha"/>
<feOffset dy="0.752688"/>
<feGaussianBlur stdDeviation="0.376344"/>
<feComposite in2="hardAlpha" operator="out"/>
<feColorMatrix type="matrix" values="0 0 0 0 0 0 0 0 0 0 0 0 0 0 0 0 0 0 0.25 0"/>
<feBlend mode="normal" in2="BackgroundImageFix" result="effect1_dropShadow_3920_274"/>
<feBlend mode="normal" in="SourceGraphic" in2="effect1_dropShadow_3920_274" result="shape"/>
</filter>
<filter id="filter2_d_3920_274" x="3.87817" y="4.74048" width="45.9985" height="45.0864" filterUnits="userSpaceOnUse" color-interpolation-filters="sRGB">
<feFlood flood-opacity="0" result="BackgroundImageFix"/>
<feColorMatrix in="SourceAlpha" type="matrix" values="0 0 0 0 0 0 0 0 0 0 0 0 0 0 0 0 0 0 127 0" result="hardAlpha"/>
<feOffset dy="0.752688"/>
<feGaussianBlur stdDeviation="0.376344"/>
<feComposite in2="hardAlpha" operator="out"/>
<feColorMatrix type="matrix" values="0 0 0 0 0 0 0 0 0 0 0 0 0 0 0 0 0 0 0.25 0"/>
<feBlend mode="normal" in2="BackgroundImageFix" result="effect1_dropShadow_3920_274"/>
<feBlend mode="normal" in="SourceGraphic" in2="effect1_dropShadow_3920_274" result="shape"/>
</filter>
</defs>
</svg>
